# xmcd
#
# Track frame offsets:
#	150
#	19800
#	35635
#	52060
#	80069
#	96204
#	114713
#	131174
#	151574
#	170686
#	186923
#	199905
#	218985
#	228802
#	242492
#	257649
#	280283
#	294991
#
# Disc length: 4178 seconds
#
# Revision: 0
# Processed by: cddbd v1.5.2PL0 Copyright (c) Steve Scherf et al.
# Submitted via: audiograbber 1.83.01
#
DISCID=07105012
DTITLE=The Eagles - Platine Collection
DYEAR=1999
DGENRE=
TTITLE0=Peaceful Easy Feeling
TTITLE1=Dooling Dalton
TTITLE2=Most of Us Are Sad
TTITLE3=Hotel California
TTITLE4=Take It Easy
TTITLE5=Nightingale
TTITLE6=James Dean
TTITLE7=Best of My Love
TTITLE8=Witchy Woman
TTITLE9=Desperado
TTITLE10=Tequila Sunrise
TTITLE11=Train Leaves Here This Morning
TTITLE12=Twenty-one
TTITLE13=Out of Control
TTITLE14=Saturday Night
TTITLE15=Bitter Creek
TTITLE16=Chug All Night
TTITLE17=Take the Devil
EXTD=
EXTT0=
EXTT1=
EXTT2=
EXTT3=
EXTT4=
EXTT5=
EXTT6=
EXTT7=
EXTT8=
EXTT9=
EXTT10=
EXTT11=
EXTT12=
EXTT13=
EXTT14=
EXTT15=
EXTT16=
EXTT17=
PLAYORDER=
